<svg id="vuesax_bulk_call" data-name="vuesax/bulk/call" xmlns="http://www.w3.org/2000/svg" width="24" height="24" viewBox="0 0 24 24">
  <g id="call">
    <path id="Vector" d="M0,12.21l3.27,3.27q.54-.48,1.05-.99a28.414,28.414,0,0,0,2.79-3.27A17.828,17.828,0,0,0,9.07,7.81a8.423,8.423,0,0,0,.72-3.27,5.173,5.173,0,0,0-.36-1.93A4.6,4.6,0,0,0,8.28.94,2.93,2.93,0,0,0,6.2,0a1.879,1.879,0,0,0-.81.18,1.63,1.63,0,0,0-.67.56L2.4,4.01a3.422,3.422,0,0,0-.4.7,1.581,1.581,0,0,0-.14.61,1.357,1.357,0,0,0,.21.71,3.4,3.4,0,0,0,.56.71l.76.79a.535.535,0,0,1,.16.4.908.908,0,0,1-.03.23c-.03.08-.06.14-.08.2a8.3,8.3,0,0,1-.93,1.28c-.45.52-.93,1.05-1.45,1.58C.7,11.57.35,11.91,0,12.21Z" transform="translate(12.21 2)" fill="#3cd40e" opacity="0.4"/>
    <path id="Vector-2" data-name="Vector" d="M0,4.29a2.54,2.54,0,0,0,.15.85,2.442,2.442,0,0,0,.1.24A4.126,4.126,0,0,0,.93,6.4,4.508,4.508,0,0,0,2.57,7.58c.01,0,.02.01.03.01a5.052,5.052,0,0,0,1.92.37,8.334,8.334,0,0,0,3.26-.73,17.564,17.564,0,0,0,3.44-1.98c.39-.29.78-.58,1.15-.89L9.1,1.09a5.618,5.618,0,0,1-.74.48c-.05.02-.11.05-.18.08a.69.69,0,0,1-.25.04.55.55,0,0,1-.41-.17L6.76.77A3.068,3.068,0,0,0,6.04.21,1.332,1.332,0,0,0,5.33,0a1.6,1.6,0,0,0-.61.13,3.868,3.868,0,0,0-.7.39L.71,2.87a1.517,1.517,0,0,0-.55.64A2.052,2.052,0,0,0,0,4.29Z" transform="translate(2.03 14.04)" fill="#3cd40e"/>
    <path id="Vector-3" data-name="Vector" d="M24,0H0V24H24Z" fill="none" opacity="0"/>
  </g>
</svg>
