<svg xmlns="http://www.w3.org/2000/svg" width="16" height="16" viewBox="0 0 16 16">
  <g id="Group_810" data-name="Group 810" transform="translate(-0.27 0.089)">
    <g id="Ellipse_313" data-name="Ellipse 313" transform="translate(0.27 -0.09)" fill="none" stroke="#0d2948" stroke-width="1">
      <circle cx="8" cy="8" r="8" stroke="none"/>
      <circle cx="8" cy="8" r="7.5" fill="none"/>
    </g>
    <path id="Path_797" data-name="Path 797" d="M.729-.534Q.676-.691.64-.854a3.087,3.087,0,0,1-.058-.388Q.561-1.467.55-1.782T.54-2.537q0-.441.01-.755t.031-.54A3.087,3.087,0,0,1,.64-4.221q.037-.163.089-.32A2.323,2.323,0,0,1,1.61-5.8,2.584,2.584,0,0,1,3.1-6.219a2.557,2.557,0,0,1,1.39.372,2.323,2.323,0,0,1,.9,1.065.1.1,0,0,1-.042.136l-.629.3a.093.093,0,0,1-.147-.052,1.961,1.961,0,0,0-.556-.687A1.452,1.452,0,0,0,3.1-5.348a1.514,1.514,0,0,0-.944.273A1.631,1.631,0,0,0,1.62-4.3q-.031.115-.058.247a2.889,2.889,0,0,0-.042.325q-.016.194-.026.483t-.01.708q0,.42.01.708t.026.483a3.119,3.119,0,0,0,.042.33,2.47,2.47,0,0,0,.058.241A1.631,1.631,0,0,0,2.155,0,1.514,1.514,0,0,0,3.1.274,1.452,1.452,0,0,0,4.012.007a1.961,1.961,0,0,0,.556-.687.093.093,0,0,1,.147-.052l.629.3a.1.1,0,0,1,.042.136,2.323,2.323,0,0,1-.9,1.065,2.557,2.557,0,0,1-1.39.372A2.584,2.584,0,0,1,1.61.73,2.323,2.323,0,0,1,.729-.534Z" transform="translate(5.191 10.626)" fill="#0d2948" stroke="#0d2948" stroke-width="0.5"/>
  </g>
</svg>
