<svg xmlns="http://www.w3.org/2000/svg" width="15.192" height="16.783" viewBox="0 0 15.192 16.783">
  <g id="noun-delete-5718920" transform="translate(-73.138 -14.003)">
    <path id="Path_55837" data-name="Path 55837" d="M124.335,16.908a.645.645,0,0,0-.559-.323h-3.228V15.94A1.936,1.936,0,0,0,118.612,14h-3.873a1.936,1.936,0,0,0-1.936,1.936v.645h-2.927a.645.645,0,1,0,0,1.291h.345v9.683a3.232,3.232,0,0,0,3.228,3.228H119.9a3.232,3.232,0,0,0,3.228-3.228V17.876h.646a.645.645,0,0,0,.559-.968Zm-10.242-.968a.645.645,0,0,1,.646-.645h3.873a.645.645,0,0,1,.646.645v.645h-5.164Zm7.746,11.619A1.936,1.936,0,0,1,119.9,29.5h-6.455a1.936,1.936,0,0,1-1.936-1.936V17.876h10.328Z" transform="translate(-36.091 0)" fill="#fff"/>
    <path id="Path_55838" data-name="Path 55838" d="M263.711,224.984a.645.645,0,0,0,.968-.559v-5.164a.646.646,0,0,0-1.291,0v5.164A.646.646,0,0,0,263.711,224.984Z" transform="translate(-185.387 -198.158)" fill="#fff"/>
    <path id="Path_55839" data-name="Path 55839" d="M386.481,224.984a.645.645,0,0,0,.968-.559v-5.164a.645.645,0,1,0-1.291,0v5.164a.646.646,0,0,0,.323.559Z" transform="translate(-304.284 -198.158)" fill="#fff"/>
  </g>
</svg>
