<svg xmlns="http://www.w3.org/2000/svg" width="15.792" height="15.792" viewBox="0 0 15.792 15.792">
  <path id="noun-edit-5160184" d="M105.623,24.978a.718.718,0,0,1,1.015,0l.841.841a.718.718,0,0,1,0,1.015L105.313,29l-4.378,4.38H99.078V31.525Zm2.03-1.015a2.153,2.153,0,0,0-3.045,0l-6.755,6.758a.718.718,0,0,0-.21.507V34.1a.718.718,0,0,0,.718.718h2.871a.718.718,0,0,0,.508-.21l6.755-6.758a2.154,2.154,0,0,0,0-3.045Zm-12.164-.631a2.153,2.153,0,0,0-2.153,2.153V36.971a2.153,2.153,0,0,0,2.153,2.153h11.485a2.153,2.153,0,0,0,2.153-2.153V31.228a.718.718,0,0,0-1.436,0v5.743a.718.718,0,0,1-.718.718H95.489a.718.718,0,0,1-.718-.718V25.485a.718.718,0,0,1,.718-.718h6.46a.718.718,0,1,0,0-1.436Z" transform="translate(-93.336 -23.332)" fill="#fff" fill-rule="evenodd"/>
</svg>
