<svg xmlns="http://www.w3.org/2000/svg" width="24.944" height="27.557" viewBox="0 0 24.944 27.557">
  <g id="noun-delete-5718920" transform="translate(-73.138 -14.003)">
    <path id="Path_55837" data-name="Path 55837" d="M134.031,18.773a1.06,1.06,0,0,0-.918-.53h-5.3v-1.06a3.18,3.18,0,0,0-3.18-3.18h-6.359a3.179,3.179,0,0,0-3.18,3.18v1.06H110.29a1.06,1.06,0,1,0,0,2.12h.566v15.9a5.306,5.306,0,0,0,5.3,5.3h10.6a5.306,5.306,0,0,0,5.3-5.3v-15.9h1.06a1.06,1.06,0,0,0,.918-1.59Zm-16.816-1.59a1.06,1.06,0,0,1,1.06-1.06h6.359a1.06,1.06,0,0,1,1.06,1.06v1.06h-8.479Zm12.719,19.078a3.179,3.179,0,0,1-3.18,3.18h-10.6a3.179,3.179,0,0,1-3.18-3.18v-15.9h16.958Z" transform="translate(-36.091)" fill="#ea0248"/>
    <path id="Path_55838" data-name="Path 55838" d="M263.919,229.073a1.06,1.06,0,0,0,1.59-.918v-8.479a1.06,1.06,0,0,0-2.12,0v8.479A1.06,1.06,0,0,0,263.919,229.073Z" transform="translate(-182.265 -194.014)" fill="#ea0248"/>
    <path id="Path_55839" data-name="Path 55839" d="M386.689,229.073a1.06,1.06,0,0,0,1.59-.918v-8.479a1.06,1.06,0,1,0-2.12,0v8.479a1.06,1.06,0,0,0,.53.918Z" transform="translate(-298.676 -194.014)" fill="#ea0248"/>
  </g>
</svg>
