<svg xmlns="http://www.w3.org/2000/svg" width="18.98" height="18.978" viewBox="0 0 18.98 18.978">
  <g id="noun-rotate-1909553" transform="translate(-83.961 -13.933)">
    <path id="Path_55777" data-name="Path 55777" d="M84.422,23.363a.589.589,0,0,0-.459.619,9.514,9.514,0,1,0,2.1-6.512l-.9-.739a.592.592,0,0,0-.959.459v3.416a.58.58,0,0,0,.7.579l.16-.04.759-.16.32-.06,2.117-.459a.588.588,0,0,0,.24-1.039l-1.079-.859a7.735,7.735,0,1,1-1.7,5.253v-.04a.594.594,0,0,0-.7-.559Z" transform="translate(0)" fill="#5622c8"/>
  </g>
</svg>
