<svg xmlns="http://www.w3.org/2000/svg" width="26.667" height="20" viewBox="0 0 26.667 20">
  <g id="noun-filter-1058877" transform="translate(-69.992 -70)">
    <path id="Path_55833" data-name="Path 55833" d="M84.577,73.333a4.446,4.446,0,0,1,8.609,0h2.362a1.111,1.111,0,1,1,0,2.222H93.185a4.446,4.446,0,0,1-8.609,0H71.1a1.111,1.111,0,1,1,0-2.222ZM73.466,84.444a4.446,4.446,0,0,1,8.609,0H95.547a1.111,1.111,0,1,1,0,2.222H82.074a4.446,4.446,0,0,1-8.609,0H71.1a1.111,1.111,0,1,1,0-2.222Zm4.3,3.333a2.222,2.222,0,1,0-2.222-2.222A2.222,2.222,0,0,0,77.77,87.777ZM88.881,76.667a2.222,2.222,0,0,0,0-4.444c-1.227,0-2.222,2.222-2.222,2.222S87.654,76.667,88.881,76.667Z" fill="#7e7e7e" fill-rule="evenodd"/>
  </g>
</svg>
