<svg xmlns="http://www.w3.org/2000/svg" width="19.859" height="18.013" viewBox="0 0 19.859 18.013">
  <path id="Path_55834" data-name="Path 55834" d="M117.411,52.5H100.784a1.618,1.618,0,0,0-1.616,1.616v2.771a1.614,1.614,0,0,0,.924,1.454V68.9a1.646,1.646,0,0,0,1.671,1.616h13.693a2.6,2.6,0,0,0,2.649-2.54V60.583a.693.693,0,1,0-1.386,0v7.39h0a1.214,1.214,0,0,1-1.263,1.155H101.762a.266.266,0,0,1-.285-.231V58.5h15.934a1.619,1.619,0,0,0,1.616-1.617V54.117a1.618,1.618,0,0,0-1.616-1.616Zm-16.627,4.619a.231.231,0,0,1-.231-.231V54.117a.231.231,0,0,1,.231-.231h16.627a.231.231,0,0,1,.231.231v2.771a.231.231,0,0,1-.231.231Z" transform="translate(-99.168 -52.5)" fill="#b6b6b6"/>
</svg>
