<svg id="vuesax_bulk_user-tag" data-name="vuesax/bulk/user-tag" xmlns="http://www.w3.org/2000/svg" width="30" height="30" viewBox="0 0 30 30">
  <g id="user-tag">
    <path id="Vector" d="M0,0H30V30H0Z" fill="none" opacity="0"/>
    <path id="Vector-2" data-name="Vector" d="M18.75,21.062H17.8a3.734,3.734,0,0,0-2.65,1.087l-2.138,2.113a2.528,2.528,0,0,1-3.537,0L7.337,22.15a3.756,3.756,0,0,0-2.65-1.087H3.75A3.729,3.729,0,0,1,0,17.35V3.712A3.729,3.729,0,0,1,3.75,0h15A3.729,3.729,0,0,1,22.5,3.712V17.35A3.737,3.737,0,0,1,18.75,21.062Z" transform="translate(3.75 2.513)" fill="#da871b" opacity="0.4"/>
    <g id="Group" transform="translate(10.394 7.188)">
      <path id="Vector-3" data-name="Vector" d="M5.825,2.913A2.913,2.913,0,1,1,2.913,0,2.912,2.912,0,0,1,5.825,2.913Z" transform="translate(1.693)" fill="#da871b"/>
      <path id="Vector-4" data-name="Vector" d="M7.956,4.075A1.255,1.255,0,0,0,8.993,2.113,5.261,5.261,0,0,0,4.606,0,5.261,5.261,0,0,0,.218,2.113,1.255,1.255,0,0,0,1.256,4.075Z" transform="translate(0 7.562)" fill="#da871b"/>
    </g>
  </g>
</svg>
