<svg id="noun-vegeta-58043" xmlns="http://www.w3.org/2000/svg" width="20.194" height="27.925" viewBox="0 0 20.194 27.925">
  <path id="Path_55821" data-name="Path 55821" d="M242.96,226.019c-.051,0-.088,0-.107,0s-.055,0-.107,0a2.9,2.9,0,0,1-1.314-.274,12.319,12.319,0,0,1-3.153-2.832,2.933,2.933,0,0,1-.215-.618,1.053,1.053,0,0,1-.269-.116,4.932,4.932,0,0,1-1.448-1.9,4.126,4.126,0,0,1,.222-2.434.711.711,0,0,1,.313-.3,10.309,10.309,0,0,0-.12-1.567,2.679,2.679,0,0,1-.053-.76q-.011-.15-.01-.3a8.5,8.5,0,0,1,2.012-4.726c1.337-1.7,2.847-2.673,4.143-2.673a6.052,6.052,0,0,1,3.993,2.319c1.392,1.524,2.725,3.852,2.608,5.662a.467.467,0,0,1-.04.248c-.023.07-.057.168-.1.284a11.225,11.225,0,0,0-.459,1.532.734.734,0,0,1,.28.28,4.131,4.131,0,0,1,.223,2.434,4.932,4.932,0,0,1-1.448,1.9,1.059,1.059,0,0,1-.27.116,2.95,2.95,0,0,1-.215.618,12.3,12.3,0,0,1-3.153,2.832,2.894,2.894,0,0,1-1.314.274Zm-.106-.5h.107a2.533,2.533,0,0,0,1.073-.211,12.114,12.114,0,0,0,2.955-2.63,2.953,2.953,0,0,0,.212-.668l.048-.207.219.016a.409.409,0,0,0,.192-.071,4.6,4.6,0,0,0,1.226-1.613,3.733,3.733,0,0,0-.172-2.037c-.042-.069-.078-.1-.1-.1a.3.3,0,0,1-.2-.149c-.127-.223-.033-.649.437-1.984.038-.109.08-.226.1-.3l0-.028c.129-1.424-.889-3.632-2.475-5.368a5.593,5.593,0,0,0-3.626-2.157c-1.126,0-2.529.929-3.753,2.484a8.123,8.123,0,0,0-1.906,4.418c0,.121.005.241.016.358l.09.973-.007-.011c.034.286.067.593.083.857.026.442.023.844-.285.9-.019,0-.056.032-.1.1a3.716,3.716,0,0,0-.171,2.036,4.6,4.6,0,0,0,1.226,1.613.4.4,0,0,0,.191.071h.007l.212-.015.048.207a2.989,2.989,0,0,0,.212.668,12.106,12.106,0,0,0,2.955,2.63,2.536,2.536,0,0,0,1.073.211h.105Z" transform="translate(-233.279 -198.094)" fill="#0d2948"/>
  <path id="Path_55822" data-name="Path 55822" d="M204.139,79.517l3.039-2.765a6.262,6.262,0,0,1-1.565.061c1.6-1.535,3.221-6.306,3.221-6.306a12.864,12.864,0,0,1-2.491,1.169,14.6,14.6,0,0,0,.866-4.862,17.8,17.8,0,0,1-2.187,1.945,13.882,13.882,0,0,0,.349-5.364s-.894,1.162-1.458,1.292c.046-.874-1.443-4.589-1.443-4.589s-.494,2.917-1.155,3.373c0-2.826-2.325-6.6-2.325-6.6a12.54,12.54,0,0,1-1,3.658,19.952,19.952,0,0,1-2.309,2.7,14.758,14.758,0,0,1,.045-3.008c-3.457,4.528-3.373,5.834-3.373,5.834s-.836-1.511-1.671-3.069c-.6,1.968-.7,7.354-.7,7.354s-.494-.509-1.337-1.4c-.037,5.083,1.026,7.2,1.839,7.658a9.787,9.787,0,0,1-1.565-.334c-.022.539,3.13,3.1,3.13,3.1s-.516-1.678-.007-2.264c.3-.342,1.162.98,1.162.98s-.023-1.253.456-1.55l-.775.137s.342-5.32,2.562-5.3c1.153.011,1.358,1.584,2.543,4.364,1.39-2.507,1.844-4.552,3.213-4.445,1.732.137,2.3,3.837,2.12,4.786-.034.175-.615,0-.615,0a3.612,3.612,0,0,1,.547,1.3c0,.081.821-.776,1.14-.593s.228,1.755-.251,2.734Z" transform="translate(-188.64 -56.867)" fill="#0d2948"/>
</svg>
