<svg xmlns="http://www.w3.org/2000/svg" width="19.943" height="19.939" viewBox="0 0 19.943 19.939">
  <g id="Group_7860" data-name="Group 7860" transform="translate(1887.799 -5554.988)">
    <path id="Union_2" data-name="Union 2" d="M1.41,14.817A9.823,9.823,0,0,1,.086,9.881C.092,1.169,10.664-3.309,17.05,2.865l-.009.033a9.81,9.81,0,0,1,2.9,6.986A9.947,9.947,0,0,1,5.266,18.568L0,19.939Z" transform="translate(-1887.799 5554.988)" fill="#169e24" opacity="0.37"/>
    <path id="Path_55608" data-name="Path 55608" d="M15.557,12.961l-.007.062c-1.827-.911-2.018-1.032-2.254-.678-.164.245-.641.8-.784.965s-.29.174-.537.062a6.743,6.743,0,0,1-2-1.234A7.538,7.538,0,0,1,8.6,10.42c-.243-.42.266-.48.729-1.358a.457.457,0,0,0-.021-.435c-.062-.125-.558-1.346-.766-1.833s-.4-.424-.558-.424a1.237,1.237,0,0,0-1.137.286c-1.341,1.474-1,2.994.145,4.611,2.255,2.951,3.456,3.495,5.653,4.249a3.437,3.437,0,0,0,1.562.1,2.557,2.557,0,0,0,1.675-1.185,2.057,2.057,0,0,0,.15-1.184c-.061-.112-.224-.174-.474-.287Z" transform="translate(-1888.85 5553.912)" fill="#169e24"/>
  </g>
</svg>
