<svg xmlns="http://www.w3.org/2000/svg" width="25.439" height="25.439" viewBox="0 0 25.439 25.439">
  <path id="noun-clothes-3677682" d="M95.086,17.565a2.545,2.545,0,0,0-1.428.426l-5.089,3.392A2.546,2.546,0,0,0,87.436,23.5v5.089a2.558,2.558,0,0,0,2.549,2.541h.845v9.328A2.562,2.562,0,0,0,93.377,43h1.7a.848.848,0,1,0,0-1.7h-1.7a.841.841,0,0,1-.851-.851V30.285a.848.848,0,0,0-.845-.851h-1.7a.837.837,0,0,1-.853-.845V23.5a.854.854,0,0,1,.383-.707Q92.059,21.1,94.6,19.4a.867.867,0,0,1,.482-.144.845.845,0,0,1,.752.47,5.192,5.192,0,0,0,3.48,2.84v4.326a.848.848,0,1,0,1.7,0V22.57a4.4,4.4,0,0,0,2.216-1.086,5.928,5.928,0,0,0,1.266-1.759.829.829,0,0,1,1.225-.326l5.09,3.393a.853.853,0,0,1,.383.707v5.089a.836.836,0,0,1-.851.845h-1.7a.848.848,0,0,0-.845.851V40.457a.841.841,0,0,1-.851.851H98.466a.848.848,0,1,0,0,1.7h8.475a2.564,2.564,0,0,0,2.549-2.547V31.129h.845a2.551,2.551,0,0,0,2.541-2.541V23.5a2.546,2.546,0,0,0-1.133-2.117q-2.544-1.7-5.082-3.392a2.56,2.56,0,0,0-3.687.976,4.349,4.349,0,0,1-.894,1.272,2.64,2.64,0,0,1-1.923.714,3.215,3.215,0,0,1-2.811-1.986,2.545,2.545,0,0,0-2.259-1.4Zm3.292,18.654a.849.849,0,0,0,.088,1.7h3.385a.848.848,0,1,0,0-1.7H98.466a.846.846,0,0,0-.088,0Z" transform="translate(-87.436 -17.565)" fill="#fff"/>
</svg>
