<svg xmlns="http://www.w3.org/2000/svg" width="23.321" height="23.321" viewBox="0 0 23.321 23.321">
  <g id="noun-gallery-3430919" transform="translate(-76.966 -19.845)">
    <path id="Path_55823" data-name="Path 55823" d="M92.42,41.951h2.375l4.678-5.2-2.359-3.172-6.06,6.737v.27a1.369,1.369,0,0,0,1.366,1.366Zm1.991-18.244h.19a2.044,2.044,0,0,1,4.042,0h.189a1.693,1.693,0,0,1,0,3.386H94.411a1.693,1.693,0,0,1,0-3.386Zm.806,1.215h-.806a.478.478,0,0,0,0,.955h4.421a.478.478,0,1,0,0-.955,6.291,6.291,0,0,1-.934-.014.607.607,0,0,1-.465-.722.76.76,0,0,0,.018-.174.829.829,0,1,0-1.657,0,.647.647,0,0,0,.013.151.608.608,0,0,1-.589.758ZM100.3,35.831l6.072-6.751h0a.606.606,0,0,1,.937.044l4.636,6.235V22.427a1.37,1.37,0,0,0-1.366-1.366H92.42a1.368,1.368,0,0,0-1.366,1.366V38.5l5.653-6.284a.607.607,0,0,1,.937.044l2.655,3.57ZM92.42,43.166a2.589,2.589,0,0,1-2.582-2.581V22.427a2.592,2.592,0,0,1,2.582-2.582h18.158a2.59,2.59,0,0,1,2.582,2.582V40.584a2.588,2.588,0,0,1-2.581,2.582Zm4.006-1.215h14.152a1.373,1.373,0,0,0,1.366-1.349V37.39l-5.167-6.948L96.426,41.951Z" transform="translate(-12.872)" fill="#fff"/>
  </g>
</svg>
