<svg xmlns="http://www.w3.org/2000/svg" width="27.744" height="28.002" viewBox="0 0 27.744 28.002">
  <g id="noun-home-1035650" transform="translate(-72.57 0.01)">
    <path id="Path_55825" data-name="Path 55825" d="M72.591,14.65c0,.023.014.044.02.067a1.064,1.064,0,0,0,.039.126.992.992,0,0,0,.049.091c.016.029.028.059.047.087a1.029,1.029,0,0,0,.129.156l0,0c.014.014.03.023.045.037a1.057,1.057,0,0,0,.111.089c.028.019.058.032.087.047a1.016,1.016,0,0,0,.09.047,1.049,1.049,0,0,0,.111.034c.027.008.054.018.082.024a1.019,1.019,0,0,0,.167.017c.011,0,.022,0,.033,0h2.649V26.96a1.032,1.032,0,0,0,1.032,1.032H95.6V25.927H78.317V13.411H76.076L86.442,2.928,96.809,13.411H94.567v7.81a1.032,1.032,0,1,0,2.065,0V15.476h2.649a1.032,1.032,0,0,0,.2-.02c.028-.006.054-.016.081-.024a1.033,1.033,0,0,0,.111-.034c.031-.013.06-.031.089-.047s.06-.029.088-.048a.993.993,0,0,0,.107-.087c.016-.014.033-.024.048-.039l0,0a1.027,1.027,0,0,0,.129-.156.947.947,0,0,0,.046-.085.992.992,0,0,0,.049-.092,1.027,1.027,0,0,0,.038-.123c.007-.024.016-.046.021-.07a1.041,1.041,0,0,0,.021-.2v0c0-.016,0-.03,0-.046a1.044,1.044,0,0,0-.015-.154c-.006-.031-.017-.059-.026-.088a1.09,1.09,0,0,0-.032-.1.96.96,0,0,0-.049-.093.932.932,0,0,0-.046-.085,1.063,1.063,0,0,0-.089-.111c-.013-.015-.022-.031-.036-.045L86.442-.01,72.868,13.718c-.014.014-.023.03-.036.045a1.063,1.063,0,0,0-.089.111c-.018.027-.031.057-.046.085s-.035.06-.048.093a.943.943,0,0,0-.033.106c-.009.029-.02.057-.025.087a1.022,1.022,0,0,0-.015.154c0,.016,0,.03,0,.046v0a1.047,1.047,0,0,0,.021.2Z" fill="#fff"/>
    <path id="Path_55826" data-name="Path 55826" d="M272.4,207.142a4.311,4.311,0,1,0-4.311,4.311A4.316,4.316,0,0,0,272.4,207.142Zm-4.311,2.246a2.246,2.246,0,1,1,2.246-2.246A2.249,2.249,0,0,1,268.093,209.388Z" transform="translate(-181.651 -192.698)" fill="#fff"/>
    <path id="Path_55827" data-name="Path 55827" d="M327.046,400.381a1.275,1.275,0,1,1-1.275-1.275,1.275,1.275,0,0,1,1.275,1.275" transform="translate(-239.329 -379.159)" fill="#fff"/>
  </g>
</svg>
