<svg xmlns="http://www.w3.org/2000/svg" width="18.126" height="29.002" viewBox="0 0 18.126 29.002">
  <path id="noun-mobile-1062480" d="M178.741,0A3.742,3.742,0,0,0,175,3.739V25.26A3.744,3.744,0,0,0,178.741,29h10.649a3.742,3.742,0,0,0,3.739-3.739V3.739A3.742,3.742,0,0,0,189.389,0Zm0,1.813h10.649a1.929,1.929,0,0,1,1.926,1.926V21.751h-14.5V3.739a1.929,1.929,0,0,1,1.926-1.926Zm3.484,1.852V5.477h3.654V3.664Zm-5.409,19.9h14.5v1.7a1.929,1.929,0,0,1-1.926,1.926H178.741a1.929,1.929,0,0,1-1.926-1.926Z" transform="translate(-175.002)" fill="#fff"/>
</svg>
