<svg xmlns="http://www.w3.org/2000/svg" width="27.702" height="27.707" viewBox="0 0 27.702 27.707">
  <g id="noun-other-4763100" transform="translate(-69.955 0.109)">
    <path id="Path_55829" data-name="Path 55829" d="M78.367,2.054c.6,0,1.157.016,1.644.054a.8.8,0,0,1,.681.784c.076.936.114,2.109.108,3.494s-.049,2.564-.13,3.488a.92.92,0,0,1-.838.838c-.925.081-2.1.124-3.488.13h-.2c-1.3,0-2.407-.038-3.288-.108a.807.807,0,0,1-.784-.681,29.875,29.875,0,0,1-.016-3.3,32.283,32.283,0,0,1,.292-3.31,1.375,1.375,0,0,1,1.06-1.06,30.826,30.826,0,0,1,3.31-.292c.584-.027,1.136-.038,1.65-.038m0-2.055c-.508,0-1.087.011-1.736.038a33.2,33.2,0,0,0-3.537.319,3.415,3.415,0,0,0-2.78,2.78,33.2,33.2,0,0,0-.319,3.537,31.59,31.59,0,0,0,.016,3.521,2.845,2.845,0,0,0,2.666,2.585c.827.065,1.947.114,3.461.114h.206c1.622-.005,2.8-.059,3.667-.141a2.981,2.981,0,0,0,2.7-2.7c.076-.86.135-2.05.141-3.667s-.043-2.8-.114-3.667A2.858,2.858,0,0,0,80.152.053C79.67.02,79.081,0,78.367,0Z" transform="translate(0 -0.103)" fill="#fff"/>
    <path id="Path_55830" data-name="Path 55830" d="M373.726,1.951c.508,0,1.065.011,1.644.038a32.284,32.284,0,0,1,3.31.292,1.375,1.375,0,0,1,1.06,1.06,30.818,30.818,0,0,1,.292,3.31,29.776,29.776,0,0,1-.016,3.294.807.807,0,0,1-.784.681c-.887.07-2,.108-3.294.108h-.184c-1.4-.005-2.569-.049-3.488-.13a.934.934,0,0,1-.838-.838c-.081-.919-.124-2.093-.13-3.488s.032-2.558.108-3.488a.8.8,0,0,1,.681-.784c.487-.038,1.044-.059,1.639-.054m.005-2.061c-.714,0-1.3.022-1.79.054a2.849,2.849,0,0,0-2.585,2.666c-.07.865-.119,2.044-.114,3.667s.059,2.807.141,3.667a2.981,2.981,0,0,0,2.7,2.7c.865.076,2.05.135,3.667.141h.206c1.514,0,2.639-.049,3.461-.114a2.85,2.85,0,0,0,2.666-2.585,31.682,31.682,0,0,0,.016-3.526,33.482,33.482,0,0,0-.314-3.537,3.415,3.415,0,0,0-2.78-2.78,34.7,34.7,0,0,0-3.537-.319c-.66-.022-1.233-.032-1.742-.038Z" transform="translate(-284.488)" fill="#fff"/>
    <path id="Path_55831" data-name="Path 55831" d="M76.184,301.193h.2c1.4.005,2.569.049,3.488.13a.92.92,0,0,1,.838.838c.081.925.124,2.1.13,3.488s-.032,2.558-.108,3.488a.8.8,0,0,1-.681.784c-.492.032-1.044.054-1.644.054-.508,0-1.065-.011-1.65-.038a32.287,32.287,0,0,1-3.31-.292,1.374,1.374,0,0,1-1.06-1.065,30.826,30.826,0,0,1-.292-3.31,29.775,29.775,0,0,1,.016-3.294.807.807,0,0,1,.784-.681c.882-.065,1.99-.1,3.288-.1m0-2.055c-1.514,0-2.639.049-3.461.114a2.859,2.859,0,0,0-2.666,2.591,33.089,33.089,0,0,0-.016,3.526,33.479,33.479,0,0,0,.314,3.537,3.434,3.434,0,0,0,2.785,2.785,34.569,34.569,0,0,0,3.532.319c.649.027,1.228.038,1.736.038.714,0,1.3-.022,1.79-.054a2.849,2.849,0,0,0,2.585-2.666c.07-.865.119-2.044.114-3.667s-.059-2.807-.141-3.667a2.981,2.981,0,0,0-2.7-2.7c-.865-.076-2.05-.135-3.667-.141Z" transform="translate(-0.045 -284.45)" fill="#fff"/>
    <path id="Path_55832" data-name="Path 55832" d="M375.844,301.3c1.3,0,2.407.038,3.294.108a.807.807,0,0,1,.784.681,29.742,29.742,0,0,1,.016,3.294,32.28,32.28,0,0,1-.292,3.31,1.375,1.375,0,0,1-1.06,1.06,32.3,32.3,0,0,1-3.31.3c-.584.027-1.136.038-1.65.038-.6,0-1.157-.016-1.644-.054a.807.807,0,0,1-.681-.784c-.076-.93-.114-2.1-.108-3.494s.049-2.569.13-3.488a.934.934,0,0,1,.838-.838c.919-.081,2.093-.124,3.488-.13h.195m0-2.05h-.206c-1.622.005-2.807.06-3.667.141a2.981,2.981,0,0,0-2.7,2.7c-.076.865-.135,2.05-.141,3.667s.043,2.8.114,3.667a2.854,2.854,0,0,0,2.585,2.666c.487.032,1.071.054,1.79.054.514,0,1.087-.011,1.736-.038a31.827,31.827,0,0,0,3.537-.319A3.434,3.434,0,0,0,381.674,309a34.4,34.4,0,0,0,.319-3.537,30.4,30.4,0,0,0-.016-3.526,2.849,2.849,0,0,0-2.666-2.585c-.833-.06-1.952-.108-3.467-.108Z" transform="translate(-284.379 -284.555)" fill="#fff"/>
  </g>
</svg>
