<svg xmlns="http://www.w3.org/2000/svg" width="12.324" height="39.967" viewBox="0 0 12.324 39.967">
  <path id="Path_56006" data-name="Path 56006" d="M-6854.878-3654.384v.225a.58.58,0,0,1-.35-.625.5.5,0,0,1-.53.071.465.465,0,0,0,.325-.351,1.239,1.239,0,0,0-.084-.65.378.378,0,0,0-.2.343c0-.008-.284-.31.071-.876a.2.2,0,0,0-.237.16c0,.01-.067-.227.293-.355,0,0-.453-.208-.418-.5,0,.005.5.3.959-.46,0,0,.149,0,.149,0a1.144,1.144,0,0,1,.58-.458,1.309,1.309,0,0,0-.062-.145l.134.092s.807-.328.915-.531a.664.664,0,0,1-.249.354,6.051,6.051,0,0,1,1.822.3,1.687,1.687,0,0,0,.908.1,1.86,1.86,0,0,1-.908.138c-.018-.005.858,1.44,1.285,1.352a.833.833,0,0,1-.721-.089c-.011,0,.249,1.567-.564,2.079a1.112,1.112,0,0,0,.165-.572c-.007-.019-.589,1.09-.589,1.09s.39.053.069.59a.454.454,0,0,1,.177.421c0-.005,1,.216,1.063.577,0,.005.338.039.338.039l1.541,10.956-.73-.39-.229,1.111-.174,7.319s.135.219-.042.713a16.589,16.589,0,0,0,.177,5.682s-.341.271.243.867c0,.012-.243.77-.243.77l.389,1.169s.5.475.512.584c.013-.024.755.451,1.145.353-.013.025.279.329.207.572a2.217,2.217,0,0,1-2.629,0,.623.623,0,0,0-.73-.353c-.036,0-.779-.133-.864-.39v-1.388a.684.684,0,0,1,0-.706c0,.061.062-.444-.244-.612a2.587,2.587,0,0,0,.244-1c.033.036-.794-3.161-.244-4.934,0-.031,0-.253,0-.253s-.349-.4-.127-.733c.013,0,.033-6.287-.729-7.46a60.448,60.448,0,0,0-1.48,7.723,3.23,3.23,0,0,1-.379,1.731,13.54,13.54,0,0,0-.607,5.7c-.013.022-.341.825-.341.825v2.134s-.2,1.226-1.157,1.077c.009-.01-1.461.015-.806-1.711-.019.007.206-.892.112-.986l.122-.384-.122-.618a1.541,1.541,0,0,1,.122-.9c0-.01.317-1.779.311-2.111,0-.015-.122-3.388.475-4.483.024,0-.082-.163-.082-.163l.192-.41a1.635,1.635,0,0,1,.094-1.021,6.778,6.778,0,0,0,.186-1.6,12.869,12.869,0,0,1,.392-2.876c-.012-.024-.313-2.069-.8-2.288a3.146,3.146,0,0,1-1.192.451l1.059-10.2s.009-1.771.35-2.051c-.012.013.438-.338.438-.338h.292s.256-.087.3-.221c0,.024.7-.426.7-.426l.088.085v-.316l-.038-.134.309-.292-.19-.265v.212S-6854.776-3654.359-6854.878-3654.384Z" transform="translate(6858.854 3660.199)" fill="none" stroke="#fff" stroke-linecap="round" stroke-width="1.5"/>
</svg>
