<svg xmlns="http://www.w3.org/2000/svg" width="26.438" height="26.438" viewBox="0 0 26.438 26.438">
  <g id="noun-sticker-5697046" transform="translate(-76.517 -17.5)">
    <path id="Path_55824" data-name="Path 55824" d="M99.927,19.289a11.449,11.449,0,1,0,11.113,6.454c-3.644.719-6.344.3-8.213-1.055a7.682,7.682,0,0,1-2.9-5.4Zm1.945.8,7.1,4.186a7.311,7.311,0,0,1-5.114-1.008,5.413,5.413,0,0,1-1.99-3.177ZM87.5,30.719A13.219,13.219,0,0,1,100.718,17.5a.881.881,0,0,1,.447.122l10.8,6.36a.882.882,0,0,1,.323.332A13.22,13.22,0,1,1,87.5,30.719Zm7.05-1.763a.881.881,0,0,1,.881-.881h10.575a.881.881,0,0,1,0,1.763H95.43A.881.881,0,0,1,94.549,28.956Zm0,5.288a.881.881,0,0,1,.881-.881h4.406a.881.881,0,0,1,0,1.763H95.43A.881.881,0,0,1,94.549,34.244Z" transform="translate(-10.982)" fill="#fff" fill-rule="evenodd"/>
  </g>
</svg>
