<svg xmlns="http://www.w3.org/2000/svg" width="30.46" height="28.206" viewBox="0 0 30.46 28.206">
  <g id="noun-swimming-accessories-4003695" transform="translate(-85.476 -35.096)">
    <path id="Path_55828" data-name="Path 55828" d="M115.262,54.266a2.908,2.908,0,0,0-2.547-1.47H88.738a2.94,2.94,0,0,0-2.547,4.41l1.9,3.283a5.132,5.132,0,0,0,8.885,0l1.367-2.365h4.776l1.367,2.365a5.132,5.132,0,0,0,8.885,0l1.9-3.283a2.931,2.931,0,0,0,0-2.94ZM102.393,56.8H99.06a2.9,2.9,0,0,0-.192-2.537c-.03-.053-.066-.1-.1-.149h3.918c-.033.05-.069.1-.1.149a2.9,2.9,0,0,0-.195,2.537Zm-4.671-.258-1.9,3.283a3.807,3.807,0,0,1-6.593,0l-1.9-3.283a1.619,1.619,0,0,1,1.4-2.428h7.584a1.615,1.615,0,0,1,1.4,2.428Zm16.393,0-1.9,3.283a3.807,3.807,0,0,1-6.593,0l-1.9-3.283a1.619,1.619,0,0,1,1.4-2.428h7.584a1.616,1.616,0,0,1,1.4,2.428ZM87.642,51.029h26.1a1.923,1.923,0,0,0,1.42-.628,1.88,1.88,0,0,0,.482-1.44,15.022,15.022,0,0,0-29.913,0,1.884,1.884,0,0,0,.482,1.44,1.938,1.938,0,0,0,1.424.628Zm13.051-14.362a13.822,13.822,0,0,1,13.642,12.419.551.551,0,0,1-.145.426.609.609,0,0,1-.446.2h-26.1a.609.609,0,0,1-.446-.2.552.552,0,0,1-.145-.426,13.819,13.819,0,0,1,13.642-12.42Z" transform="translate(0)" fill="#fff" stroke="#fff" stroke-width="0.5"/>
  </g>
</svg>
