<svg xmlns="http://www.w3.org/2000/svg" width="92.128" height="147.407" viewBox="0 0 92.128 147.407">
  <path id="noun-mobile-1062480" d="M194,0a19.021,19.021,0,0,0-19,19V128.388a19.03,19.03,0,0,0,19,19.019h54.124a19.021,19.021,0,0,0,19-19V19a19.02,19.02,0,0,0-19-19Zm0,9.213h54.124A9.8,9.8,0,0,1,257.917,19v91.552h-73.7V19A9.8,9.8,0,0,1,194,9.213Zm17.706,9.411v9.213h18.57V18.624ZM184.216,119.769h73.7v8.637a9.8,9.8,0,0,1-9.789,9.789H194.006a9.8,9.8,0,0,1-9.789-9.789Z" transform="translate(-175.002)" fill="#fff"/>
</svg>
