<svg xmlns="http://www.w3.org/2000/svg" width="138.253" height="138.254" viewBox="0 0 138.253 138.254">
  <g id="noun-sticker-5697046" transform="translate(-76.517 -17.5)">
    <path id="Path_55824" data-name="Path 55824" d="M152.491,26.857A59.872,59.872,0,1,0,210.6,60.605c-19.058,3.762-33.172,1.577-42.947-5.515C158.47,48.425,154.042,38.1,152.49,26.858Zm10.172,4.158L199.815,52.9c-12.6,1.191-21.1-1.176-26.742-5.272-5.211-3.781-8.593-9.472-10.408-16.616ZM87.5,86.626A69.127,69.127,0,0,1,156.625,17.5a4.607,4.607,0,0,1,2.339.638L215.418,51.4a4.612,4.612,0,0,1,1.69,1.734A69.131,69.131,0,1,1,87.5,86.628Zm36.867-9.217a4.609,4.609,0,0,1,4.608-4.608h55.3a4.608,4.608,0,0,1,0,9.217h-55.3A4.609,4.609,0,0,1,124.366,77.409Zm0,27.65a4.609,4.609,0,0,1,4.608-4.608h23.042a4.608,4.608,0,0,1,0,9.217H128.974A4.609,4.609,0,0,1,124.366,105.059Z" transform="translate(-10.982)" fill="#fff" fill-rule="evenodd"/>
  </g>
</svg>
