<svg xmlns="http://www.w3.org/2000/svg" width="149.594" height="150.983" viewBox="0 0 149.594 150.983">
  <g id="noun-home-1035650" transform="translate(-72.57 0.01)">
    <path id="Path_55825" data-name="Path 55825" d="M72.682,79.034c.025.124.076.239.108.36a5.733,5.733,0,0,0,.211.678,5.337,5.337,0,0,0,.262.491c.084.156.153.317.253.467a5.548,5.548,0,0,0,.694.841l.012.014c.076.075.164.126.242.2a5.7,5.7,0,0,0,.6.481c.152.1.313.171.471.255a5.484,5.484,0,0,0,.488.253,5.654,5.654,0,0,0,.6.185c.147.042.289.1.441.127a5.5,5.5,0,0,0,.9.092c.06,0,.118.018.179.018H92.42v61.913a5.567,5.567,0,0,0,5.567,5.567h98.755V139.838H103.557V72.355H91.473l55.9-56.526,55.9,56.526H191.178v42.113a5.567,5.567,0,1,0,11.134,0V83.49H216.6a5.566,5.566,0,0,0,1.088-.11c.152-.031.293-.087.439-.13a5.57,5.57,0,0,0,.6-.185c.169-.07.321-.166.481-.252s.322-.156.474-.257a5.355,5.355,0,0,0,.577-.468c.084-.074.178-.13.259-.209a.127.127,0,0,1,.012-.014,5.541,5.541,0,0,0,.694-.841,5.106,5.106,0,0,0,.25-.459,5.347,5.347,0,0,0,.265-.5,5.538,5.538,0,0,0,.206-.662c.036-.127.087-.246.114-.377a5.608,5.608,0,0,0,.111-1.094s0-.008,0-.014c0-.084-.021-.163-.025-.247a5.625,5.625,0,0,0-.083-.829c-.033-.165-.092-.317-.138-.477a5.881,5.881,0,0,0-.175-.563,5.176,5.176,0,0,0-.262-.5,5.024,5.024,0,0,0-.248-.456,5.734,5.734,0,0,0-.482-.6c-.069-.079-.121-.166-.2-.241L147.367-.01,74.179,74.009c-.075.076-.125.163-.2.241a5.729,5.729,0,0,0-.482.6c-.1.146-.167.305-.25.458s-.187.325-.259.5a5.083,5.083,0,0,0-.176.57c-.046.157-.105.308-.137.47a5.518,5.518,0,0,0-.083.832c-.005.084-.026.163-.026.246,0,0,0,.008,0,.014a5.645,5.645,0,0,0,.112,1.1Z" transform="translate(0)" fill="#fff"/>
    <path id="Path_55826" data-name="Path 55826" d="M310.273,226.076a23.245,23.245,0,1,0-23.245,23.245A23.271,23.271,0,0,0,310.273,226.076Zm-23.245,12.11a12.11,12.11,0,1,1,12.11-12.11A12.124,12.124,0,0,1,287.027,238.187Z" transform="translate(-139.66 -148.153)" fill="#fff"/>
    <path id="Path_55827" data-name="Path 55827" d="M338.247,405.982a6.876,6.876,0,1,1-6.875-6.876,6.876,6.876,0,0,1,6.875,6.876" transform="translate(-184.005 -291.511)" fill="#fff"/>
  </g>
</svg>
