<svg xmlns="http://www.w3.org/2000/svg" width="127.07" height="127.071" viewBox="0 0 127.07 127.071">
  <g id="noun-gallery-3430919" transform="translate(-76.966 -19.845)">
    <path id="Path_55823" data-name="Path 55823" d="M103.905,140.294h12.939l25.489-28.339L129.478,94.67,96.46,131.376v1.473a7.457,7.457,0,0,0,7.445,7.445Zm10.849-99.409h1.034a11.137,11.137,0,0,1,22.024,0h1.03c12.121,0,12.112,18.447,0,18.447H114.754c-12.114,0-12.13-18.447,0-18.447Zm4.392,6.621h-4.392a2.6,2.6,0,0,0,0,5.2h24.088a2.6,2.6,0,1,0,0-5.2,34.272,34.272,0,0,1-5.089-.077,3.309,3.309,0,0,1-2.535-3.931,4.142,4.142,0,0,0,.1-.946,4.515,4.515,0,1,0-9.03,0,3.527,3.527,0,0,0,.072.824,3.314,3.314,0,0,1-3.208,4.132Zm27.689,59.44,33.087-36.784,0,0a3.3,3.3,0,0,1,5.106.242l25.259,33.971V33.911a7.464,7.464,0,0,0-7.445-7.445H103.907a7.454,7.454,0,0,0-7.445,7.445v87.581l30.8-34.242a3.306,3.306,0,0,1,5.106.242l14.467,19.454ZM103.9,146.916a14.108,14.108,0,0,1-14.066-14.064V33.911A14.125,14.125,0,0,1,103.9,19.845h98.937a14.113,14.113,0,0,1,14.066,14.066v98.937a14.1,14.1,0,0,1-14.064,14.066Zm21.829-6.621h77.109a7.478,7.478,0,0,0,7.445-7.349v-17.5L182.136,77.585l-56.4,62.713Z" transform="translate(-12.872)" fill="#fff"/>
  </g>
</svg>
