<svg xmlns="http://www.w3.org/2000/svg" width="136.419" height="136.42" viewBox="0 0 136.419 136.42">
  <path id="noun-clothes-3677682" d="M128.459,17.565a13.65,13.65,0,0,0-7.656,2.283q-13.647,9.093-27.291,18.189a13.655,13.655,0,0,0-6.075,11.351V76.68A13.719,13.719,0,0,0,101.1,90.3h4.529v50.02a13.741,13.741,0,0,0,13.66,13.659h9.095a4.549,4.549,0,1,0,0-9.095h-9.095a4.51,4.51,0,0,1-4.565-4.564V85.775a4.548,4.548,0,0,0-4.529-4.565H101.1a4.488,4.488,0,0,1-4.574-4.53V49.389A4.577,4.577,0,0,1,98.582,45.6Q112.227,36.5,125.84,27.4a4.65,4.65,0,0,1,2.584-.773,4.529,4.529,0,0,1,4.032,2.522c1.413,2.825,7.055,13.029,18.66,15.232v23.2c0,6.064,9.095,6.064,9.095,0V44.406a23.621,23.621,0,0,0,11.883-5.826,31.791,31.791,0,0,0,6.786-9.433,4.445,4.445,0,0,1,6.571-1.749q13.642,9.094,27.294,18.2a4.575,4.575,0,0,1,2.051,3.793V76.68a4.481,4.481,0,0,1-4.564,4.53h-9.1a4.549,4.549,0,0,0-4.529,4.565v54.549a4.51,4.51,0,0,1-4.565,4.564H146.586a4.549,4.549,0,1,0,0,9.095h45.447A13.748,13.748,0,0,0,205.7,140.324V90.3h4.53a13.681,13.681,0,0,0,13.624-13.625V49.388a13.656,13.656,0,0,0-6.075-11.351q-13.642-9.094-27.255-18.189a13.726,13.726,0,0,0-19.771,5.231,23.325,23.325,0,0,1-4.8,6.821,14.156,14.156,0,0,1-10.311,3.828c-9.545,0-13.823-8.15-15.072-10.648a13.646,13.646,0,0,0-12.114-7.514ZM146.115,117.6a4.554,4.554,0,0,0,.47,9.094H164.74a4.549,4.549,0,1,0,0-9.095H146.585a4.538,4.538,0,0,0-.47,0Z" transform="translate(-87.436 -17.565)" fill="#fff"/>
</svg>
