<svg xmlns="http://www.w3.org/2000/svg" width="29.726" height="29.704" viewBox="0 0 29.726 29.704">
  <path id="noun-call-5600861" d="M114.191,59.156a3.306,3.306,0,0,1,4.059.483l1.676,1.678c4.594-1.131,7.421-3.931,8.45-8.431L126.691,51.2a3.305,3.305,0,0,1-.484-4.059c.747-1.224,1.823-2.985,2.692-4.408a3.3,3.3,0,0,1,5.157-.615l2.578,2.578a4.4,4.4,0,0,1,1.2,4v0q-3.782,18.065-22.064,22.053h0a4.4,4.4,0,0,1-4.03-1.191c-.748-.737-1.717-1.706-2.57-2.559a3.3,3.3,0,0,1,.615-5.157l4.408-2.692Z" transform="translate(-108.199 -41.149)" fill="#5622c8" fill-rule="evenodd"/>
</svg>
